HIERARCHY
ROOT Hips
{
	OFFSET 0.000000 0.000000 0.000000
	CHANNELS 6 Xposition Yposition Zposition Xrotation Yrotation Zrotation
	JOINT C_ctrl
	{
		OFFSET 0.000000 35.040482 -0.000011
		CHANNELS 3 Xrotation Yrotation Zrotation
		JOINT Bip01
		{
			OFFSET -41.537640 41.789009 -0.000007
			CHANNELS 3 Xrotation Yrotation Zrotation
			JOINT Bip01_Pelvis
			{
				OFFSET -2.462887 0.000000 0.000000
				CHANNELS 3 Xrotation Yrotation Zrotation
				JOINT BN_Tail_01
				{
					OFFSET -11.399368 7.351341 -0.000013
					CHANNELS 3 Xrotation Yrotation Zrotation
					JOINT BN_Tail_02
					{
						OFFSET -11.365196 -0.343025 0.000012
						CHANNELS 3 Xrotation Yrotation Zrotation
						JOINT BN_Tail_03
						{
							OFFSET -15.076256 -0.454979 0.000017
							CHANNELS 3 Xrotation Yrotation Zrotation
							JOINT BN_Tail_04
							{
								OFFSET -17.395691 -0.525002 0.000016
								CHANNELS 3 Xrotation Yrotation Zrotation
								JOINT BN_Tail_05
								{
									OFFSET -16.699837 -0.504005 0.000016
									CHANNELS 3 Xrotation Yrotation Zrotation
									End Site
									{
										OFFSET 0.503998 -16.699829 0.000067
									}
								}
							}
						}
					}
				}
				JOINT Bip01_Spine
				{
					OFFSET 8.297798 5.916809 -0.000020
					CHANNELS 3 Xrotation Yrotation Zrotation
					JOINT Bip01_R_Thigh
					{
						OFFSET -8.297779 -5.916794 10.541781
						CHANNELS 3 Xrotation Yrotation Zrotation
						JOINT Bip01_R_Calf
						{
							OFFSET 5.631542 -22.906792 0.862690
							CHANNELS 3 Xrotation Yrotation Zrotation
							JOINT Bip01_R_HorseLink
							{
								OFFSET -16.984341 -19.231926 -3.555767
								CHANNELS 3 Xrotation Yrotation Zrotation
								JOINT Bip01_R_Foot
								{
									OFFSET 4.290367 -24.783146 0.578056
									CHANNELS 3 Xrotation Yrotation Zrotation
									JOINT Bip01_R_Toe0
									{
										OFFSET 3.561211 -5.815116 0.760802
										CHANNELS 3 Xrotation Yrotation Zrotation
										JOINT Bip01_R_Toe0Nub
										{
											OFFSET 16.135469 0.002017 1.534789
											CHANNELS 3 Xrotation Yrotation Zrotation
											End Site
											{
												OFFSET -0.000002 16.208284 -0.000056
											}
										}
									}
								}
							}
						}
					}
					JOINT Bip01_L_Thigh
					{
						OFFSET -8.297813 -5.916832 -10.541739
						CHANNELS 3 Xrotation Yrotation Zrotation
						JOINT Bip01_L_Calf
						{
							OFFSET 5.631535 -22.906792 -0.862625
							CHANNELS 3 Xrotation Yrotation Zrotation
							JOINT Bip01_L_HorseLink
							{
								OFFSET -16.984318 -19.231949 3.555875
								CHANNELS 3 Xrotation Yrotation Zrotation
								JOINT Bip01_L_Foot
								{
									OFFSET 4.290367 -24.783169 -0.577965
									CHANNELS 3 Xrotation Yrotation Zrotation
									JOINT Bip01_L_Toe0
									{
										OFFSET 3.561245 -5.815111 -0.760799
										CHANNELS 3 Xrotation Yrotation Zrotation
										JOINT Bip01_L_Toe0Nub
										{
											OFFSET 6.574303 -0.000005 -1.538561
											CHANNELS 3 Xrotation Yrotation Zrotation
											End Site
											{
												OFFSET 0.000004 -6.751935 0.000023
											}
										}
									}
								}
							}
						}
					}
					JOINT Bip01_Spine1
					{
						OFFSET 20.556803 -4.626213 -0.000025
						CHANNELS 3 Xrotation Yrotation Zrotation
						JOINT Saddle
						{
							OFFSET 17.608810 18.174690 -0.000143
							CHANNELS 3 Xrotation Yrotation Zrotation
							End Site
							{
								OFFSET -0.000063 -0.000061 -22.448387
							}
						}
						JOINT BN_center
						{
							OFFSET 10.743275 -13.417107 -0.172041
							CHANNELS 3 Xrotation Yrotation Zrotation
							End Site
							{
								OFFSET 22.434088 0.553078 -0.579614
							}
						}
						JOINT Bip01_Spine2
						{
							OFFSET 24.765072 -2.054115 -0.000032
							CHANNELS 3 Xrotation Yrotation Zrotation
							JOINT Handle
							{
								OFFSET 63.735676 16.430748 -16.052464
								CHANNELS 3 Xrotation Yrotation Zrotation
								JOINT IK_Chain01
								{
									OFFSET -4.713058 -6.020439 0.185448
									CHANNELS 3 Xrotation Yrotation Zrotation
									End Site
									{
										OFFSET -0.000023 -0.000023 -7.648071
									}
								}
							}
							JOINT BN_hair04_01
							{
								OFFSET 1.987491 16.256981 -2.049672
								CHANNELS 3 Xrotation Yrotation Zrotation
								JOINT BN_hair04_02
								{
									OFFSET -1.318762 -3.831451 -6.174704
									CHANNELS 3 Xrotation Yrotation Zrotation
									JOINT BN_hair04_03
									{
										OFFSET -0.827490 -5.886627 -5.656666
										CHANNELS 3 Xrotation Yrotation Zrotation
										End Site
										{
											OFFSET -2.658262 5.010620 -5.929780
										}
									}
								}
							}
							JOINT Bip01_Neck
							{
								OFFSET 25.574577 9.433014 -0.000084
								CHANNELS 3 Xrotation Yrotation Zrotation
								JOINT Bip01_R_Clavicle
								{
									OFFSET -16.535652 0.011192 6.705692
									CHANNELS 3 Xrotation Yrotation Zrotation
									JOINT Bip01_R_UpperArm
									{
										OFFSET 20.272621 -12.959984 2.510816
										CHANNELS 3 Xrotation Yrotation Zrotation
										JOINT Bip01_R_Forearm
										{
											OFFSET -13.633509 -15.503704 -0.653585
											CHANNELS 3 Xrotation Yrotation Zrotation
											JOINT Bip01_R_Hand
											{
												OFFSET 2.580030 -27.804676 -1.136415
												CHANNELS 3 Xrotation Yrotation Zrotation
												JOINT Bip01_R_Finger0
												{
													OFFSET -0.281744 -19.659061 -0.398649
													CHANNELS 3 Xrotation Yrotation Zrotation
													JOINT Bip01_Xtra02
													{
														OFFSET 4.152210 -5.712314 0.433813
														CHANNELS 3 Xrotation Yrotation Zrotation
														JOINT Bip01_Xtra02Nub
														{
															OFFSET 15.457960 0.041654 0.507982
															CHANNELS 3 Xrotation Yrotation Zrotation
															End Site
															{
																OFFSET -15.421730 -0.157725 -1.163459
															}
														}
													}
													JOINT Bip01_R_Finger0Nub
													{
														OFFSET 8.362326 -9.718440 -0.143142
														CHANNELS 3 Xrotation Yrotation Zrotation
														End Site
														{
															OFFSET -1.213036 -0.198171 9.872291
														}
													}
												}
											}
										}
									}
								}
								JOINT Bip01_L_Clavicle
								{
									OFFSET -16.535673 0.011162 -6.705583
									CHANNELS 3 Xrotation Yrotation Zrotation
									JOINT Bip01_L_UpperArm
									{
										OFFSET 20.272615 -12.959999 -2.510836
										CHANNELS 3 Xrotation Yrotation Zrotation
										JOINT Bip01_L_Forearm
										{
											OFFSET -13.633495 -15.503681 0.653678
											CHANNELS 3 Xrotation Yrotation Zrotation
											JOINT Bip01_L_Hand
											{
												OFFSET 2.579988 -27.804686 1.136487
												CHANNELS 3 Xrotation Yrotation Zrotation
												JOINT Bip01_L_Finger0
												{
													OFFSET -0.281765 -19.659058 0.398696
													CHANNELS 3 Xrotation Yrotation Zrotation
													JOINT Bip01_Xtra01
													{
														OFFSET 4.083549 -5.738758 -0.666714
														CHANNELS 3 Xrotation Yrotation Zrotation
														JOINT Bip01_Xtra01Nub
														{
															OFFSET 6.758158 -0.395525 -0.023239
															CHANNELS 3 Xrotation Yrotation Zrotation
															End Site
															{
																OFFSET 6.764923 -0.254147 -0.029908
															}
														}
													}
													JOINT Bip01_L_Finger0Nub
													{
														OFFSET -0.012636 -9.629153 0.045740
														CHANNELS 3 Xrotation Yrotation Zrotation
														End Site
														{
															OFFSET 0.988407 0.004791 8.293357
														}
													}
												}
											}
										}
									}
								}
								JOINT BN_hair03_01
								{
									OFFSET -5.894140 16.270622 -2.498433
									CHANNELS 3 Xrotation Yrotation Zrotation
									JOINT BN_hair03_02
									{
										OFFSET -0.189278 -7.800507 -6.219162
										CHANNELS 3 Xrotation Yrotation Zrotation
										JOINT BN_hair03_03
										{
											OFFSET 0.612345 -10.844475 -3.370718
											CHANNELS 3 Xrotation Yrotation Zrotation
											End Site
											{
												OFFSET -2.273296 2.862007 -10.769416
											}
										}
									}
								}
								JOINT Bip01_Neck1
								{
									OFFSET 9.383755 11.908699 -0.000007
									CHANNELS 3 Xrotation Yrotation Zrotation
									JOINT BN_hair02_01
									{
										OFFSET 9.126320 18.808022 -1.420810
										CHANNELS 3 Xrotation Yrotation Zrotation
										JOINT BN_hair02_02
										{
											OFFSET 0.393478 -5.181091 -5.248574
											CHANNELS 3 Xrotation Yrotation Zrotation
											JOINT BN_hair02_03
											{
												OFFSET 0.762280 -8.167076 -0.230047
												CHANNELS 3 Xrotation Yrotation Zrotation
												End Site
												{
													OFFSET -0.025837 -1.251419 -8.109770
												}
											}
										}
									}
									JOINT Bip01_Head
									{
										OFFSET 14.266129 10.475403 -0.000008
										CHANNELS 3 Xrotation Yrotation Zrotation
										JOINT BN_Reins_01
										{
											OFFSET 18.547455 -15.740112 -0.000035
											CHANNELS 3 Xrotation Yrotation Zrotation
											JOINT BN_Reins_02
											{
												OFFSET -5.372810 -5.884506 0.000028
												CHANNELS 3 Xrotation Yrotation Zrotation
												JOINT BN_Reins_03
												{
													OFFSET -6.395866 -15.947449 0.000070
													CHANNELS 3 Xrotation Yrotation Zrotation
													JOINT BN_Halter_R_01
													{
														OFFSET -1.234055 -3.096100 7.096737
														CHANNELS 3 Xrotation Yrotation Zrotation
														End Site
														{
															OFFSET 10.514435 -4.176861 -0.000004
														}
													}
													JOINT BN_Halter_L_01
													{
														OFFSET -1.234062 -3.096146 -7.096726
														CHANNELS 3 Xrotation Yrotation Zrotation
														End Site
														{
															OFFSET -10.514435 4.176865 -0.000000
														}
													}
													JOINT BN_Reins_04
													{
														OFFSET -6.737644 -16.971684 0.000074
														CHANNELS 3 Xrotation Yrotation Zrotation
														JOINT BN_Halter_R_02
														{
															OFFSET -4.688869 -11.781956 7.096771
															CHANNELS 3 Xrotation Yrotation Zrotation
															End Site
															{
																OFFSET 14.669624 -5.827511 -0.000006
															}
														}
														JOINT BN_Halter_L_02
														{
															OFFSET -4.688892 -11.782017 -7.096693
															CHANNELS 3 Xrotation Yrotation Zrotation
															End Site
															{
																OFFSET -14.669624 5.827507 -0.000002
															}
														}
														JOINT BN_Reins_05
														{
															OFFSET -6.822578 -16.971161 0.000074
															CHANNELS 3 Xrotation Yrotation Zrotation
															JOINT BN_Reins_06
															{
																OFFSET -6.140354 -15.095148 0.000066
																CHANNELS 3 Xrotation Yrotation Zrotation
																End Site
																{
																	OFFSET -15.095150 6.140352 -0.000002
																}
															}
														}
													}
												}
											}
										}
										JOINT BN_hair01_01
										{
											OFFSET 8.957344 8.870956 0.112121
											CHANNELS 3 Xrotation Yrotation Zrotation
											JOINT BN_hair01_02
											{
												OFFSET 6.002075 -2.962952 -3.121264
												CHANNELS 3 Xrotation Yrotation Zrotation
												End Site
												{
													OFFSET 5.917702 3.813591 -2.232396
												}
											}
										}
										JOINT BN_Eyebrow_R
										{
											OFFSET 11.795959 -0.430496 4.449781
											CHANNELS 3 Xrotation Yrotation Zrotation
											JOINT Bip01_Xtra06Nub
											{
												OFFSET 2.936661 -0.262573 3.246701
												CHANNELS 3 Xrotation Yrotation Zrotation
												End Site
												{
													OFFSET 2.768745 0.208199 3.394807
												}
											}
										}
										JOINT BN_Eyebrow_L
										{
											OFFSET 11.586395 -0.445618 -4.441728
											CHANNELS 3 Xrotation Yrotation Zrotation
											JOINT Bip01_Xtra05Nub
											{
												OFFSET 3.244698 -0.349442 -4.416700
												CHANNELS 3 Xrotation Yrotation Zrotation
												End Site
												{
													OFFSET 3.053162 0.072495 -4.564033
												}
											}
										}
										JOINT Bip01_R_Ear_01
										{
											OFFSET 7.142960 7.567184 4.311657
											CHANNELS 3 Xrotation Yrotation Zrotation
											JOINT Bip01_Xtra04Nub
											{
												OFFSET 9.464531 9.264214 1.682953
												CHANNELS 3 Xrotation Yrotation Zrotation
												End Site
												{
													OFFSET 8.448181 10.159340 1.910823
												}
											}
										}
										JOINT Bip01__L_Ear_01
										{
											OFFSET 7.214943 7.717056 -4.356771
											CHANNELS 3 Xrotation Yrotation Zrotation
											JOINT Bip01_Xtra03Nub
											{
												OFFSET 9.230225 8.944366 -2.322746
												CHANNELS 3 Xrotation Yrotation Zrotation
												End Site
												{
													OFFSET 8.170288 9.841324 -2.643566
												}
											}
										}
										JOINT Bip01_Jaw
										{
											OFFSET 9.196068 -4.110695 -0.000013
											CHANNELS 3 Xrotation Yrotation Zrotation
											JOINT Bip01_Ponytail1Nub
											{
												OFFSET 10.976463 -21.082108 -0.000053
												CHANNELS 3 Xrotation Yrotation Zrotation
												End Site
												{
													OFFSET 11.247093 -20.938980 0.000113
												}
											}
										}
										JOINT Bip01_HeadNub
										{
											OFFSET 29.954575 -18.249489 -0.000063
											CHANNELS 3 Xrotation Yrotation Zrotation
											End Site
											{
												OFFSET -9.198448 -13.366348 0.000168
											}
										}
									}
								}
							}
						}
					}
				}
			}
		}
	}
}
MOTION
Frames: 4
Frame Time: 0.033333
0.000000 0.000000 0.000000 0.000008 0.000000 -0.000000 -0.000000 0.000000 -0.000000 0.000000 0.000000 -0.000006 0.040746 -0.108298 -0.003407 18.361647 -26.484682 25.680695 5.215193 -10.285262 25.000932 5.395706 -9.027143 28.423515 -1.568865 6.668501 12.324021 0.203957 -1.572311 6.770910 0.019892 0.213381 13.456583 -7.478917 6.334801 -7.469589 0.571686 0.016840 -2.897483 0.154130 0.007422 -0.781595 7.507128 -5.425315 0.509039 0.295983 0.528904 -2.052903 0.000101 -0.000137 0.000004 3.384265 -4.435724 -9.686261 -2.792416 0.193792 -14.212829 0.176965 0.011076 0.898047 -3.215666 1.326566 4.365420 1.035115 1.666486 5.497230 -0.011449 -0.007396 -0.037117 -0.870136 0.624280 -10.891722 0.917530 -0.020778 6.784390 -0.154537 -0.192091 0.024018 0.259256 1.621239 -15.647369 0.000078 -0.000113 -0.000057 -0.000052 -0.014928 0.015042 -0.008411 0.000136 0.012276 -4.768503 -3.150054 3.942036 -5.939561 -4.895385 6.805755 3.796144 -0.613153 -12.411930 -4.629695 1.443960 23.799922 -8.540562 -4.747604 0.179148 0.541868 -1.578027 41.595842 7.067716 -5.350288 -106.126571 -0.481245 -3.810198 -70.039553 -0.630695 0.015188 -5.118758 -0.781893 0.140332 -0.478805 -0.804179 0.123462 -0.482652 -4.157934 0.837413 5.630157 3.075859 -2.911258 15.126986 -0.083614 0.701648 17.292676 -10.283526 -0.937256 -8.901395 8.662327 -0.026854 -5.074870 -1.348752 3.639392 0.578838 0.036608 0.063819 2.451840 -0.000913 0.100574 2.451955 11.501457 1.063753 -2.029208 2.275628 -1.544078 5.558275 -4.764150 -1.250621 2.133878 0.877421 -0.240638 -3.080023 7.460016 1.436758 -3.425356 -10.361868 -1.321414 13.032335 -3.935360 0.906057 8.325729 -4.757726 -0.172112 -5.455503 -0.000030 0.000325 33.480071 -0.441788 -0.458727 -72.796122 -0.000060 -0.000072 -21.993998 0.000020 -0.000008 -0.026803 0.000002 -0.000016 0.012747 -0.000096 -0.000109 -34.639882 0.000035 0.000015 0.015163 0.000025 -0.000010 0.012720 -0.000048 -0.000055 -24.223449 0.000014 -0.000013 -0.000050 -0.073038 0.030631 0.020258 -6.078483 -10.794913 12.820005 -10.255230 -19.675308 0.662521 0.024183 -0.030006 11.786591 0.011781 -0.002864 0.004558 0.023215 -0.032302 11.715983 -4.938292 -5.616538 -15.498732 0.050252 0.015091 11.755980 -6.562049 -8.388528 -12.434541 0.022899 0.006886 11.747217 0.260759 0.667456 -3.872774 -0.004513 -0.052570 11.750712 0.000071 -0.000033 11.750669 
0.000000 0.000000 0.000000 0.000008 0.000000 -0.000000 -0.000000 0.000000 -0.000000 0.000000 0.000000 -0.000006 0.067759 -0.144603 -0.006823 16.581792 -23.532508 24.761428 5.447438 -11.244003 24.207891 6.752162 -11.403380 28.494429 -0.744439 2.824672 15.541535 0.203953 -1.572308 6.770907 -0.001740 0.312474 13.276347 -7.339542 6.233362 -7.926557 0.327486 0.013185 -1.660293 0.244191 0.010761 -1.238074 7.448039 -5.487380 0.508615 0.319061 0.570441 -2.213512 0.000101 -0.000138 0.000004 4.035922 -4.612186 -6.356581 -3.673104 0.403057 -18.794596 0.332865 0.023159 1.690049 -3.776409 1.450257 2.318785 1.564983 1.587192 8.279593 -0.011449 -0.007396 -0.037117 -0.883300 0.630782 -10.824908 0.917530 -0.020778 6.784389 -0.135513 -0.191573 0.023596 0.252698 1.625957 -15.165405 0.000078 -0.000113 -0.000057 -0.000052 -0.014928 0.015041 -0.008503 0.000139 0.012341 -3.821242 -2.667987 3.319356 -7.900565 -5.214260 7.288257 3.740371 -0.537653 -10.390655 -4.572888 1.653067 22.559032 -8.861087 -4.933866 -1.932997 0.688493 -1.738530 46.901533 7.128092 -5.436757 -105.028297 -0.526142 -3.618770 -67.624924 -0.623831 0.015581 -5.211629 -0.781922 0.140333 -0.478796 -0.804180 0.123462 -0.482658 -4.051232 0.894379 3.775387 3.005846 -2.932872 15.574742 -0.068791 0.645270 15.871312 -10.209663 -1.011632 -8.700473 8.660459 -0.028793 -4.914328 -1.356210 3.616495 0.497912 0.036636 0.063820 2.451840 -0.000913 0.100574 2.451955 10.680923 1.000078 -1.877434 3.171015 -1.215423 4.584995 -2.489303 -1.135036 2.772482 0.739336 -0.036094 -4.061831 9.530852 1.604718 -4.342568 -10.351632 -1.316558 12.959265 -6.712901 0.975825 10.496331 -4.425756 -0.156446 -6.821226 -0.000029 0.000324 33.480068 -0.441788 -0.458728 -72.796136 -0.000060 -0.000072 -21.993995 0.000020 -0.000008 -0.026805 0.000002 -0.000016 0.012747 -0.000096 -0.000109 -34.639882 0.000036 0.000015 0.015161 0.000025 -0.000010 0.012721 -0.000048 -0.000055 -24.223442 0.000013 -0.000013 -0.000050 -0.073040 0.030632 0.020265 -6.865753 -9.983526 10.889811 -10.238568 -19.641406 0.669025 0.024207 -0.030001 11.786610 -0.168481 -0.241968 0.106967 0.023231 -0.032298 11.715958 -4.926147 -5.633008 -16.058646 0.050267 0.015117 11.755984 -6.691764 -8.547914 -12.987157 0.022800 0.006697 11.747261 0.083971 0.706888 -4.082685 -0.004495 -0.052590 11.750716 0.000072 -0.000033 11.750673 
0.000000 0.000000 0.000000 0.000008 0.000000 -0.000000 -0.000000 0.000000 -0.000000 0.000000 0.000000 -0.000006 0.114182 -0.219302 -0.006463 14.807930 -20.410466 23.935087 5.547885 -11.937091 23.484448 7.899928 -13.578054 28.287454 0.551496 -0.999306 19.008898 0.203956 -1.572314 6.770910 -0.053550 0.443913 13.082629 -7.204932 6.133669 -8.316231 0.104646 0.005246 -0.530763 0.329422 0.013263 -1.669998 7.389425 -5.541416 0.507607 0.338891 0.603966 -2.347097 0.000101 -0.000138 0.000004 3.497627 -4.653217 -8.338389 -3.054196 0.248252 -15.566211 0.485559 0.037097 2.466628 -4.149007 2.026108 -0.096743 1.698961 1.203165 8.852699 -0.011449 -0.007396 -0.037117 -0.892609 0.650808 -10.803928 0.917530 -0.020778 6.784391 -0.116887 -0.191080 0.023160 0.231703 1.642494 -14.555449 0.000078 -0.000112 -0.000054 -0.000052 -0.014927 0.015043 -0.008345 0.000151 0.012239 -2.591061 -2.139804 2.608016 -9.198737 -5.264561 7.378187 3.696466 -0.506999 -8.205276 -4.499070 1.885517 20.942369 -8.940836 -5.145692 -4.439408 0.902563 -1.927561 53.873568 7.273887 -5.360780 -102.250131 -0.627174 -3.187776 -63.321516 -0.617046 0.015876 -5.302489 -0.781948 0.140332 -0.478803 -0.804181 0.123462 -0.482654 -3.959027 0.990445 1.796616 2.944613 -2.971678 15.895799 -0.055424 0.588781 14.455942 -10.141411 -1.092875 -8.555479 8.657303 -0.031966 -4.729113 -1.365188 3.594528 0.353597 0.036664 0.063820 2.451840 -0.000913 0.100573 2.451956 9.889584 0.933031 -1.729577 3.792315 -0.846206 3.423599 -0.260113 -0.997524 3.393660 0.577876 0.203120 -5.275580 11.249558 1.671892 -5.086343 -10.301997 -1.303921 12.730150 -9.334803 0.954429 12.022368 -4.029229 -0.194687 -7.504325 -0.000030 0.000325 33.480074 -0.441788 -0.458728 -72.796129 -0.000060 -0.000072 -21.993996 0.000020 -0.000008 -0.026805 0.000002 -0.000016 0.012745 -0.000096 -0.000109 -34.639882 0.000036 0.000015 0.015168 0.000026 -0.000010 0.012723 -0.000048 -0.000055 -24.223438 0.000013 -0.000013 -0.000050 -0.073051 0.030637 0.020252 -7.340992 -8.769824 8.628155 -10.222246 -19.608158 0.675390 0.024218 -0.030002 11.786634 -0.345379 -0.476767 0.206294 0.023244 -0.032291 11.715940 -4.818607 -5.621321 -16.395721 0.050279 0.015139 11.755987 -6.681303 -8.618669 -13.343823 0.022801 0.006697 11.747259 -0.089236 0.746203 -4.288442 -0.004478 -0.052610 11.750716 0.000071 -0.000033 11.750675 
0.000000 0.000000 0.000000 0.000008 0.000000 -0.000000 -0.000000 0.000000 -0.000000 0.000000 0.000000 -0.000006 0.167955 -0.293794 -0.013091 13.032171 -17.125031 23.208226 5.671211 -12.478943 23.109925 8.788095 -15.509502 27.844386 2.183695 -4.541257 21.800690 0.203955 -1.572310 6.770903 -0.105331 0.569859 12.869614 -7.073675 6.030920 -8.653137 -0.102187 -0.006065 0.518489 0.410864 0.015061 -2.082678 7.324510 -5.578753 0.507789 0.355009 0.630527 -2.452905 0.000101 -0.000138 0.000004 2.505602 -4.591899 -12.491410 -1.746586 0.039391 -8.858110 0.477977 0.036356 2.428042 -4.183223 2.665706 -1.424780 1.532920 0.734395 7.816126 -0.011449 -0.007396 -0.037117 -0.899249 0.681460 -10.817662 0.917530 -0.020778 6.784391 -0.098076 -0.190581 0.022750 0.202776 1.670361 -13.827478 0.000078 -0.000112 -0.000057 -0.000052 -0.014927 0.015042 -0.008341 0.000153 0.012234 -1.439687 -1.650843 1.943511 -9.770849 -5.101896 7.153542 3.660590 -0.506011 -5.898012 -4.405472 2.109070 18.947160 -8.834604 -5.373537 -7.005930 1.151339 -2.097149 61.224696 7.500625 -5.149778 -97.881563 -0.806163 -2.616367 -57.599177 -0.610137 0.016184 -5.394313 -0.782001 0.140334 -0.478817 -0.804180 0.123462 -0.482651 -3.879273 1.114122 -0.263357 2.888468 -3.013757 16.091611 -0.043429 0.531836 13.037053 -10.073381 -1.172506 -8.443816 8.652785 -0.036467 -4.513684 -1.374229 3.572261 0.207838 0.036718 0.063820 2.451839 -0.000913 0.100573 2.451955 9.154011 0.867360 -1.591999 3.947553 -0.547852 2.436505 1.909217 -0.707737 3.366775 0.409225 0.465527 -6.651996 12.450152 1.680325 -5.596028 -10.200473 -1.287641 12.379047 -10.512219 0.933720 12.590022 -3.588443 -0.272955 -7.665957 -0.000029 0.000324 33.480071 -0.441788 -0.458728 -72.796136 -0.000060 -0.000072 -21.993989 0.000020 -0.000008 -0.026805 0.000002 -0.000016 0.012743 -0.000096 -0.000109 -34.639875 0.000036 0.000015 0.015165 0.000026 -0.000010 0.012720 -0.000048 -0.000055 -24.223440 0.000013 -0.000013 -0.000048 -0.073062 0.030642 0.020265 -7.770166 -7.526215 6.361603 -10.205763 -19.574585 0.681800 0.024251 -0.029990 11.786672 -0.446645 -0.611044 0.262717 0.023275 -0.032288 11.715892 -4.623297 -5.578146 -16.539149 0.050303 0.015187 11.755998 -6.551035 -8.615915 -13.535775 0.022799 0.006696 11.747256 -0.261367 0.784318 -4.485559 -0.004442 -0.052653 11.750716 0.000072 -0.000033 11.750672 
